<mxfile host="app.diagrams.net" modified="2024-03-12T07:00:44.224Z" agent="Mozilla/5.0 (Macintosh; Intel Mac OS X 10_15_7) AppleWebKit/537.36 (KHTML, like Gecko) Chrome/122.0.0.0 Safari/537.36" etag="xkaQlNyX1Qwuh99IvkzF" version="23.1.5" type="device">
  <diagram name="Page-1" id="HJuFTTRvh9LI2OuNzmcX">
    <mxGraphModel dx="794" dy="479" grid="1" gridSize="10" guides="1" tooltips="1" connect="1" arrows="1" fold="1" page="1" pageScale="1" pageWidth="827" pageHeight="1169" math="0" shadow="0">
      <root>
        <mxCell id="0" />
        <mxCell id="1" parent="0" />
        <mxCell id="FIi3h1MT8firy8kijFIq-5" style="edgeStyle=orthogonalEdgeStyle;rounded=0;orthogonalLoop=1;jettySize=auto;html=1;exitX=1;exitY=0.25;exitDx=0;exitDy=0;entryX=0;entryY=0.25;entryDx=0;entryDy=0;" edge="1" parent="1" source="FIi3h1MT8firy8kijFIq-1" target="FIi3h1MT8firy8kijFIq-2">
          <mxGeometry relative="1" as="geometry" />
        </mxCell>
        <mxCell id="FIi3h1MT8firy8kijFIq-1" value="Client App" style="rounded=0;whiteSpace=wrap;html=1;" vertex="1" parent="1">
          <mxGeometry x="10" y="160" width="120" height="60" as="geometry" />
        </mxCell>
        <mxCell id="FIi3h1MT8firy8kijFIq-10" style="edgeStyle=orthogonalEdgeStyle;rounded=0;orthogonalLoop=1;jettySize=auto;html=1;exitX=1;exitY=0.25;exitDx=0;exitDy=0;entryX=0;entryY=0.25;entryDx=0;entryDy=0;" edge="1" parent="1" source="FIi3h1MT8firy8kijFIq-2" target="FIi3h1MT8firy8kijFIq-7">
          <mxGeometry relative="1" as="geometry" />
        </mxCell>
        <mxCell id="FIi3h1MT8firy8kijFIq-13" style="edgeStyle=orthogonalEdgeStyle;rounded=0;orthogonalLoop=1;jettySize=auto;html=1;exitX=0;exitY=0.75;exitDx=0;exitDy=0;entryX=1;entryY=0.75;entryDx=0;entryDy=0;" edge="1" parent="1" source="FIi3h1MT8firy8kijFIq-2" target="FIi3h1MT8firy8kijFIq-1">
          <mxGeometry relative="1" as="geometry" />
        </mxCell>
        <mxCell id="FIi3h1MT8firy8kijFIq-2" value="GraphQL Server" style="whiteSpace=wrap;html=1;rounded=0;" vertex="1" parent="1">
          <mxGeometry x="210" y="160" width="120" height="60" as="geometry" />
        </mxCell>
        <mxCell id="FIi3h1MT8firy8kijFIq-4" value="MongoDB" style="shape=cylinder3;whiteSpace=wrap;html=1;boundedLbl=1;backgroundOutline=1;size=15;" vertex="1" parent="1">
          <mxGeometry x="650" y="150" width="60" height="80" as="geometry" />
        </mxCell>
        <mxCell id="FIi3h1MT8firy8kijFIq-6" value="query { users }" style="text;html=1;align=center;verticalAlign=middle;resizable=0;points=[];autosize=1;strokeColor=none;fillColor=none;" vertex="1" parent="1">
          <mxGeometry x="120" y="120" width="100" height="30" as="geometry" />
        </mxCell>
        <mxCell id="FIi3h1MT8firy8kijFIq-12" style="edgeStyle=orthogonalEdgeStyle;rounded=0;orthogonalLoop=1;jettySize=auto;html=1;exitX=0;exitY=0.75;exitDx=0;exitDy=0;entryX=1;entryY=0.75;entryDx=0;entryDy=0;" edge="1" parent="1" source="FIi3h1MT8firy8kijFIq-7" target="FIi3h1MT8firy8kijFIq-2">
          <mxGeometry relative="1" as="geometry" />
        </mxCell>
        <mxCell id="FIi3h1MT8firy8kijFIq-7" value="Prisma ORM" style="whiteSpace=wrap;html=1;rounded=0;" vertex="1" parent="1">
          <mxGeometry x="410" y="160" width="120" height="60" as="geometry" />
        </mxCell>
        <mxCell id="FIi3h1MT8firy8kijFIq-16" style="edgeStyle=orthogonalEdgeStyle;rounded=0;orthogonalLoop=1;jettySize=auto;html=1;exitX=0;exitY=1;exitDx=0;exitDy=-15;exitPerimeter=0;entryX=1;entryY=0.75;entryDx=0;entryDy=0;" edge="1" parent="1" source="FIi3h1MT8firy8kijFIq-14" target="FIi3h1MT8firy8kijFIq-7">
          <mxGeometry relative="1" as="geometry">
            <Array as="points">
              <mxPoint x="570" y="315" />
              <mxPoint x="570" y="205" />
            </Array>
          </mxGeometry>
        </mxCell>
        <mxCell id="FIi3h1MT8firy8kijFIq-14" value="Postgres" style="shape=cylinder3;whiteSpace=wrap;html=1;boundedLbl=1;backgroundOutline=1;size=15;" vertex="1" parent="1">
          <mxGeometry x="650" y="250" width="60" height="80" as="geometry" />
        </mxCell>
        <mxCell id="FIi3h1MT8firy8kijFIq-15" style="edgeStyle=orthogonalEdgeStyle;rounded=0;orthogonalLoop=1;jettySize=auto;html=1;exitX=1;exitY=0.25;exitDx=0;exitDy=0;entryX=0;entryY=0;entryDx=0;entryDy=27.5;entryPerimeter=0;" edge="1" parent="1" source="FIi3h1MT8firy8kijFIq-7" target="FIi3h1MT8firy8kijFIq-14">
          <mxGeometry relative="1" as="geometry" />
        </mxCell>
        <mxCell id="FIi3h1MT8firy8kijFIq-17" value="MariaDB" style="shape=cylinder3;whiteSpace=wrap;html=1;boundedLbl=1;backgroundOutline=1;size=15;" vertex="1" parent="1">
          <mxGeometry x="650" y="50" width="60" height="80" as="geometry" />
        </mxCell>
      </root>
    </mxGraphModel>
  </diagram>
</mxfile>
